<?xml version="1.0"?>
<svg version="1.1" xmlns="http://www.w3.org/2000/svg" width="400" height="200" style="border: dashed 2px #aaa"><path fill="#0095ff" d="M63.06,146.89c0,1.08-0.72,1.71-1.8,1.71l-4.32,0c-4.68,0-6.75-2.25-7.38-5.31l-0.18,0c-2.25,3.33-8.1,6.39-13.05,6.39c-12.69,0-18.45-10.44-18.45-22.14c0-15.57,9.36-23.76,19.44-23.76c4.77,0,9.27,2.16,11.52,5.22l0.18-2.43c0.09-0.99,0.81-1.62,1.89-1.62l6.3,0c1.17,0,1.89,0.63,1.89,1.98l0,31.23c0,1.26,0.18,2.16,0.54,2.61c0.27,0.27,0.63,0.36,1.08,0.36l0.72,0c1.08,0,1.62,0.36,1.62,1.53l0,4.23z M48.21,134.65l0-17.37c-1.8-2.61-5.49-4.59-8.91-4.59c-5.49,0-10.17,4.68-10.17,14.13c0,7.56,2.88,13.95,9.54,13.95c4.41,0,8.19-3.33,9.54-6.12z M87.135,146.35c0,1.53-0.72,2.25-1.98,2.25l-6.84,0c-1.26,0-2.07-0.63-2.07-2.16l0-59.04c0-1.53,0.63-1.98,1.8-2.16l6.48-0.9c0.18,0,0.45-0.09,0.63-0.09c1.08,0,1.98,0.54,1.98,1.98l0,60.12z M114.72,146.35c0,1.53-0.72,2.25-1.98,2.25l-6.84,0c-1.26,0-2.07-0.63-2.07-2.16l0-59.04c0-1.53,0.63-1.98,1.8-2.16l6.48-0.9c0.18,0,0.45-0.09,0.63-0.09c1.08,0,1.98,0.54,1.98,1.98l0,60.12z M172.185,126.73c0,12.96-7.92,22.95-21.96,22.95c-14.67,0-21.42-9.9-21.42-23.04c0-12.96,7.92-22.86,21.96-22.86c14.67,0,21.42,9.72,21.42,22.95z M160.935,126.73c0-7.38-2.34-14.4-10.26-14.4c-8.01,0-10.62,6.93-10.62,14.13c0,7.38,2.25,14.67,10.26,14.67c7.92,0,10.62-7.02,10.62-14.4z M223.17,106.21c0,0.27-0.09,0.54-0.18,0.9l-15.75,39.78c-0.54,1.35-1.26,1.71-2.61,1.71l-4.68,0c-1.35,0-2.25-0.36-2.7-1.62l-15.48-40.14c-0.09-0.27-0.18-0.54-0.18-0.81c0-0.72,0.45-1.08,1.62-1.08l7.92,0c1.53,0,2.25,0.63,2.61,1.8l6.84,20.97c0.9,2.7,1.71,5.67,2.25,7.65l0.09,0c0.45-1.71,1.35-4.86,2.16-7.38l7.02-21.15c0.45-1.53,1.17-1.89,2.79-1.89l6.48,0c1.17,0,1.8,0.45,1.8,1.26z M273.345,126.64c0,2.16-0.72,2.61-2.97,2.61l-26.37,0c0.72,6.93,5.76,11.7,12.87,11.7c3.78,0,7.74-0.9,11.07-2.16c0.36-0.09,0.63-0.27,0.99-0.27c0.63,0,1.08,0.36,1.26,1.08l1.26,4.59c0.09,0.45,0.18,0.81,0.18,1.08c0,0.63-0.36,1.08-1.44,1.53c-4.41,1.98-10.44,2.88-15.12,2.88c-14.13,0-22.5-9-22.5-23.04c0-13.5,8.91-22.86,22.32-22.86c5.49,0,9.99,2.07,13.14,5.4c4.14,4.32,5.31,9.99,5.31,16.11l0,1.35z M262.635,122.14l0-0.99c-0.18-4.68-2.88-9-8.37-9c-5.85,0-9.36,4.68-10.08,9.99l18.45,0z M311.55,105.31c0,0.27,0,0.54-0.09,0.81l-0.99,6.39c-0.09,0.81-0.54,1.17-1.26,1.17l-0.36,0c-0.72-0.18-1.62-0.27-2.43-0.27c-3.06,0-6.39,1.62-8.64,4.32l0,28.62c0,1.44-0.63,2.25-2.16,2.25l-6.57,0c-1.44,0-2.16-0.72-2.16-2.25l0-28.08l0-11.07c0-1.8,0.9-2.25,2.25-2.25l5.76,0c1.44,0,2.25,0.45,2.25,1.71l0.09,2.88c2.79-3.51,5.85-5.76,10.89-5.76c0.72,0,1.71,0.18,2.52,0.36c0.63,0.18,0.9,0.45,0.9,1.17z"/><path fill="#" d=""/></svg>
